<svg width="1920" height="1080" viewBox="0 0 1920 1080" fill="none" xmlns="http://www.w3.org/2000/svg">
<g clip-path="url(#clip0_9_8)">
<rect width="1920" height="1080" rx="100" fill="#FAFAFA"/>
<path d="M160.5 1204L410.5 735.25L-89.5 672.75L660.5 -46H785.5L535.5 422.75L1035.5 485.25L285.5 1204H160.5Z" fill="black" fill-opacity="0.05"/>
<path fill-rule="evenodd" clip-rule="evenodd" d="M1626.82 966.198C1621.42 967.322 1616.97 969.619 1613.44 973.102C1610.65 975.855 1608.35 979.307 1608.94 979.855C1609.39 980.278 1619.09 984.356 1619.23 984.183C1619.29 984.112 1620.12 982.53 1621.08 980.669C1623.89 975.23 1628.87 969.174 1632.6 966.654C1633.58 965.995 1633.54 965.982 1630.61 966.007C1628.97 966.02 1627.26 966.106 1626.82 966.198ZM1635.2 968.599C1631.4 970.574 1626.15 976.865 1622.88 983.365L1621.82 985.465L1623.72 986.287C1632.05 989.885 1632.37 989.989 1635.03 989.985C1637.15 989.982 1637.99 989.778 1639.5 988.899C1643.13 986.774 1644.56 983.608 1644.56 977.715C1644.56 969.056 1641 965.588 1635.2 968.599ZM1647.23 972.985C1647.74 974.826 1647.49 981.861 1646.8 984.974C1646.44 986.576 1646.15 988.637 1646.16 989.553C1646.16 991.847 1647.71 994.967 1649.69 996.655C1651.38 998.105 1654.38 999.531 1654.69 999.034C1654.78 998.88 1655.17 997.248 1655.54 995.406C1657 988.196 1654.95 980.636 1649.82 974.378C1649.05 973.437 1648.08 972.487 1647.67 972.267C1647 971.909 1646.95 971.98 1647.23 972.985ZM1606.75 984.126C1605.88 986.794 1605.74 993.259 1606.47 996.394C1607.4 1000.33 1609.6 1004.53 1612.22 1007.38L1614.47 1009.82L1614.51 1004.3C1614.53 999.801 1614.72 998.121 1615.5 995.199C1616.34 992.093 1616.59 991.599 1617.39 991.486C1619.36 991.207 1619.42 991.488 1618.38 995.666C1617.1 1000.77 1616.93 1006.98 1617.99 1010.02C1618.97 1012.83 1620.53 1014.11 1622.97 1014.1C1625.55 1014.09 1627.64 1013.03 1630.66 1010.21C1634.31 1006.8 1635.59 1004.34 1635.58 1000.77C1635.57 997.604 1634.98 996.197 1632.76 994.046C1631.67 992.985 1628.64 991.511 1619.91 987.799C1613.63 985.127 1608.21 982.865 1607.87 982.773C1607.44 982.657 1607.1 983.068 1606.75 984.126ZM1643.86 1000.9C1641.24 1001.83 1640.66 1002.35 1637.54 1006.59C1635.07 1009.94 1629.81 1015.3 1628.99 1015.3C1628.76 1015.3 1628.7 1015.5 1628.85 1015.75C1629.16 1016.25 1633.94 1015.95 1636.99 1015.24C1640.19 1014.48 1645.04 1011.89 1647.62 1009.56C1649.73 1007.65 1653.33 1003.01 1653.32 1002.22C1653.32 1001.73 1649.6 1000.44 1647.79 1000.3C1646.67 1000.21 1645.14 1000.45 1643.86 1000.9Z" fill="black"/>
<path d="M879.2 611L827.8 469H855.2L895 582L934.6 469H962L910.4 611H879.2ZM999.859 613.4C988.659 613.4 979.659 610.867 972.859 605.8C966.059 600.6 962.659 593.4 962.659 584.2C962.659 575 965.526 567.8 971.259 562.6C976.993 557.4 985.726 553.667 997.459 551.4L1032.86 544.4C1032.86 536.8 1031.13 531.133 1027.66 527.4C1024.19 523.533 1019.06 521.6 1012.26 521.6C1006.13 521.6 1001.26 523.067 997.659 526C994.193 528.8 991.793 532.867 990.459 538.2L964.459 537C966.593 525.667 971.793 517 980.059 511C988.326 504.867 999.059 501.8 1012.26 501.8C1027.46 501.8 1038.93 505.667 1046.66 513.4C1054.53 521 1058.46 531.933 1058.46 546.2V585C1058.46 587.8 1058.93 589.733 1059.86 590.8C1060.93 591.867 1062.46 592.4 1064.46 592.4H1067.86V611C1067.06 611.267 1065.73 611.467 1063.86 611.6C1062.13 611.733 1060.33 611.8 1058.46 611.8C1054.06 611.8 1050.13 611.133 1046.66 609.8C1043.19 608.333 1040.53 605.867 1038.66 602.4C1036.79 598.8 1035.86 593.933 1035.86 587.8L1038.06 589.4C1036.99 594.067 1034.66 598.267 1031.06 602C1027.59 605.6 1023.19 608.4 1017.86 610.4C1012.53 612.4 1006.53 613.4 999.859 613.4ZM1005.06 594.8C1010.79 594.8 1015.73 593.667 1019.86 591.4C1023.99 589.133 1027.19 586 1029.46 582C1031.73 578 1032.86 573.267 1032.86 567.8V561.8L1005.26 567.4C999.526 568.6 995.393 570.4 992.859 572.8C990.459 575.067 989.259 578.067 989.259 581.8C989.259 585.933 990.593 589.133 993.259 591.4C996.059 593.667 999.993 594.8 1005.06 594.8ZM1084.48 611V504.2H1108.48L1109.48 533.8L1107.28 533.4C1108.88 523.133 1111.88 515.733 1116.28 511.2C1120.82 506.533 1126.95 504.2 1134.68 504.2H1144.48V526.2H1134.48C1129.02 526.2 1124.48 527 1120.88 528.6C1117.28 530.2 1114.55 532.733 1112.68 536.2C1110.95 539.533 1110.08 543.933 1110.08 549.4V611H1084.48ZM1169.23 641V621.2H1182.83C1186.3 621.2 1188.83 620.667 1190.43 619.6C1192.17 618.533 1193.5 616.733 1194.43 614.2L1197.43 606.8H1190.03L1151.83 504.2H1178.43L1205.23 582.8L1230.83 504.2H1257.43L1215.63 622.2C1213.23 628.867 1209.83 633.667 1205.43 636.6C1201.17 639.533 1195.17 641 1187.43 641H1169.23Z" fill="black"/>
<path d="M1683 1008V972.5H1689.5V989.45L1686.5 987.3H1707.4L1704.45 989.45V972.5H1710.95V1008H1704.45V990.85L1707.4 992.95H1686.5L1689.5 990.85V1008H1683ZM1725.7 1008.6C1722.9 1008.6 1720.65 1007.97 1718.95 1006.7C1717.25 1005.4 1716.4 1003.6 1716.4 1001.3C1716.4 999 1717.12 997.2 1718.55 995.9C1719.98 994.6 1722.17 993.667 1725.1 993.1L1733.95 991.35C1733.95 989.45 1733.52 988.033 1732.65 987.1C1731.78 986.133 1730.5 985.65 1728.8 985.65C1727.27 985.65 1726.05 986.017 1725.15 986.75C1724.28 987.45 1723.68 988.467 1723.35 989.8L1716.85 989.5C1717.38 986.667 1718.68 984.5 1720.75 983C1722.82 981.467 1725.5 980.7 1728.8 980.7C1732.6 980.7 1735.47 981.667 1737.4 983.6C1739.37 985.5 1740.35 988.233 1740.35 991.8V1001.5C1740.35 1002.2 1740.47 1002.68 1740.7 1002.95C1740.97 1003.22 1741.35 1003.35 1741.85 1003.35H1742.7V1008C1742.5 1008.07 1742.17 1008.12 1741.7 1008.15C1741.27 1008.18 1740.82 1008.2 1740.35 1008.2C1739.25 1008.2 1738.27 1008.03 1737.4 1007.7C1736.53 1007.33 1735.87 1006.72 1735.4 1005.85C1734.93 1004.95 1734.7 1003.73 1734.7 1002.2L1735.25 1002.6C1734.98 1003.77 1734.4 1004.82 1733.5 1005.75C1732.63 1006.65 1731.53 1007.35 1730.2 1007.85C1728.87 1008.35 1727.37 1008.6 1725.7 1008.6ZM1727 1003.95C1728.43 1003.95 1729.67 1003.67 1730.7 1003.1C1731.73 1002.53 1732.53 1001.75 1733.1 1000.75C1733.67 999.75 1733.95 998.567 1733.95 997.2V995.7L1727.05 997.1C1725.62 997.4 1724.58 997.85 1723.95 998.45C1723.35 999.017 1723.05 999.767 1723.05 1000.7C1723.05 1001.73 1723.38 1002.53 1724.05 1003.1C1724.75 1003.67 1725.73 1003.95 1727 1003.95ZM1752.86 1008C1750.93 1008 1749.38 1007.5 1748.21 1006.5C1747.05 1005.5 1746.46 1003.9 1746.46 1001.7V972.5H1752.86V1001.05C1752.86 1001.72 1753.03 1002.22 1753.36 1002.55C1753.73 1002.88 1754.23 1003.05 1754.86 1003.05H1756.81V1008H1752.86ZM1772.52 1008.6C1769.88 1008.6 1767.57 1008.03 1765.57 1006.9C1763.6 1005.73 1762.07 1004.1 1760.97 1002C1759.9 999.9 1759.37 997.45 1759.37 994.65C1759.37 991.817 1759.9 989.367 1760.97 987.3C1762.07 985.2 1763.6 983.583 1765.57 982.45C1767.57 981.283 1769.88 980.7 1772.52 980.7C1775.15 980.7 1777.45 981.283 1779.42 982.45C1781.38 983.583 1782.9 985.2 1783.97 987.3C1785.07 989.367 1785.62 991.817 1785.62 994.65C1785.62 997.45 1785.07 999.9 1783.97 1002C1782.9 1004.1 1781.38 1005.73 1779.42 1006.9C1777.45 1008.03 1775.15 1008.6 1772.52 1008.6ZM1772.52 1003.4C1774.58 1003.4 1776.17 1002.63 1777.27 1001.1C1778.4 999.567 1778.97 997.417 1778.97 994.65C1778.97 991.917 1778.4 989.783 1777.27 988.25C1776.17 986.683 1774.58 985.9 1772.52 985.9C1770.45 985.9 1768.85 986.683 1767.72 988.25C1766.58 989.783 1766.02 991.917 1766.02 994.65C1766.02 997.417 1766.58 999.567 1767.72 1001.1C1768.85 1002.63 1770.45 1003.4 1772.52 1003.4Z" fill="black"/>
<path d="M611.5 665L661.5 571.25L561.5 558.75L711.5 415H736.5L686.5 508.75L786.5 521.25L636.5 665H611.5Z" fill="black"/>
</g>
<defs>
<clipPath id="clip0_9_8">
<rect width="1920" height="1080" rx="100" fill="white"/>
</clipPath>
</defs>
</svg>
